<svg width="25" height="25" viewBox="0 0 25 25" fill="none" xmlns="http://www.w3.org/2000/svg">
<g clip-path="url(#clip0)">
<path d="M23 12.991C22.8073 15.0759 22.0249 17.0628 20.7442 18.7192C19.4635 20.3756 17.7375 21.6331 15.7683 22.3444C13.799 23.0557 11.6679 23.1914 9.62435 22.7358C7.58076 22.2801 5.7092 21.2518 4.22868 19.7713C2.74815 18.2908 1.71989 16.4192 1.26422 14.3757C0.808549 12.3321 0.944309 10.201 1.65562 8.2317C2.36692 6.26245 3.62436 4.53651 5.28078 3.25582C6.93721 1.97513 8.92411 1.19267 11.009 1C9.78837 2.65139 9.20099 4.68604 9.3537 6.73389C9.50642 8.78175 10.3891 10.7068 11.8412 12.1588C13.2932 13.6109 15.2183 14.4936 17.2661 14.6463C19.314 14.799 21.3486 14.2116 23 12.991Z" fill="#D8D8D8" stroke="#D8D8D8" stroke-width="2" stroke-linecap="round" stroke-linejoin="round"/>
</g>
<defs>
<clipPath id="clip0">
<rect width="24" height="24" fill="white" transform="translate(0.0424805 0.439941)"/>
</clipPath>
</defs>
</svg>
