<svg width="24" height="24" viewBox="0 0 24 24" fill="none" xmlns="http://www.w3.org/2000/svg">
<g clip-path="url(#clip0)">
<path d="M21.5838 12.2215C22.7034 10.7406 23.1889 8.87556 22.9334 7.03671C22.6779 5.19786 21.7024 3.53581 20.2215 2.4162C18.7406 1.29659 16.8756 0.811128 15.0367 1.06661C13.1979 1.32209 11.5358 2.29759 10.4162 3.77851L16 8.00001L21.5838 12.2215Z" fill="#FFD600"/>
<path d="M18.0001 10H16.7401C16.366 8.551 15.5929 7.23599 14.5088 6.2044C13.4246 5.1728 12.0728 4.46599 10.607 4.16428C9.14124 3.86256 7.6202 3.97804 6.21676 4.49759C4.81332 5.01714 3.58375 5.91993 2.66776 7.10338C1.75177 8.28683 1.1861 9.70348 1.03502 11.1924C0.883935 12.6812 1.1535 14.1826 1.81309 15.526C2.47267 16.8693 3.49583 18.0007 4.76629 18.7916C6.03676 19.5824 7.50359 20.0011 9.00011 20H18.0001C19.3262 20 20.598 19.4732 21.5356 18.5355C22.4733 17.5979 23.0001 16.3261 23.0001 15C23.0001 13.6739 22.4733 12.4021 21.5356 11.4645C20.598 10.5268 19.3262 10 18.0001 10Z" stroke="#4D4D4D" stroke-width="2" stroke-linecap="round" stroke-linejoin="round"/>
</g>
<defs>
<clipPath id="clip0">
<rect width="24" height="24" fill="white"/>
</clipPath>
</defs>
</svg>
