<svg width="24" height="24" viewBox="0 0 24 24" fill="none" xmlns="http://www.w3.org/2000/svg">
<g clip-path="url(#clip0)">
<path d="M18.9999 16.9001C20.2151 16.6533 21.2952 15.9639 22.0306 14.9655C22.766 13.9672 23.1043 12.7312 22.9796 11.4976C22.855 10.2639 22.2765 9.12052 21.3563 8.28943C20.4361 7.45834 19.2399 6.99881 17.9999 7.00006H16.7399C16.4086 5.71737 15.764 4.53705 14.8638 3.56504C13.9637 2.59304 12.8363 1.85979 11.5828 1.43112C10.3292 1.00245 8.98891 0.891787 7.68207 1.10906C6.37523 1.32634 5.1428 1.86475 4.09544 2.67596C3.04808 3.48718 2.21856 4.54579 1.68137 5.75677C1.14418 6.96774 0.916124 8.29317 1.01769 9.61405C1.11925 10.9349 1.54725 12.2099 2.26326 13.3245C2.97926 14.4391 3.96087 15.3585 5.11993 16.0001" stroke="#4D4D4D" stroke-width="2" stroke-linecap="round" stroke-linejoin="round"/>
<path d="M13 11L9 17H15L11 23" stroke="#FFD600" stroke-width="2" stroke-linecap="round" stroke-linejoin="round"/>
</g>
<defs>
<clipPath id="clip0">
<rect width="24" height="24" fill="white"/>
</clipPath>
</defs>
</svg>
