<svg width="24" height="24" viewBox="0 0 24 24" fill="none" xmlns="http://www.w3.org/2000/svg">
<g clip-path="url(#clip0)">
<path d="M20 17.58C21.0513 17.1195 21.9121 16.3115 22.4381 15.2915C22.9641 14.2715 23.1232 13.1016 22.8886 11.9781C22.6541 10.8547 22.0402 9.84617 21.1501 9.12179C20.2599 8.39742 19.1477 8.00131 18 7.99996H16.74C16.4231 6.77248 15.8189 5.63791 14.9773 4.68976C14.1358 3.74161 13.081 3.00703 11.8998 2.54658C10.7186 2.08612 9.44494 1.91297 8.18372 2.0414C6.92249 2.16983 5.70984 2.59615 4.64573 3.28524C3.58161 3.97433 2.6965 4.90644 2.06334 6.00475C1.43018 7.10307 1.06711 8.33613 1.00404 9.60231C0.940984 10.8685 1.17974 12.1315 1.70064 13.2873C2.22153 14.4431 3.00965 15.4585 4.00003 16.25" stroke="#4D4D4D" stroke-width="2" stroke-linecap="round" stroke-linejoin="round"/>
<path d="M14.975 15.85L15.25 13.925M7 14.75L8.925 15.85L7 14.75ZM16.9 20.25L14.975 19.15L16.9 20.25ZM11.95 17.5L8.925 15.85L11.95 17.5ZM11.95 17.5L8.925 19.15L11.95 17.5ZM11.95 17.5V13.65V17.5ZM11.95 17.5V21.075V17.5ZM11.95 17.5L14.975 19.15L11.95 17.5ZM11.95 17.5L14.975 15.85L11.95 17.5ZM11.95 12V13.65V12ZM11.95 23V21.075V23ZM16.9 14.75L14.975 15.85L16.9 14.75ZM7 20.25L8.925 19.15L7 20.25ZM8.925 15.85L7 16.4L8.925 15.85ZM8.925 15.85L8.65 13.925L8.925 15.85ZM8.925 19.15L7 18.6L8.925 19.15ZM8.925 19.15L8.65 21.075L8.925 19.15ZM11.95 13.65L10.575 13.1L11.95 13.65ZM11.95 13.65L13.325 13.1L11.95 13.65ZM11.95 21.075L13.325 21.9L11.95 21.075ZM11.95 21.075L10.575 21.9L11.95 21.075ZM14.975 19.15L15.25 21.075L14.975 19.15ZM14.975 19.15L16.9 18.6L14.975 19.15ZM14.975 15.85L16.9 16.4L14.975 15.85Z" stroke="#9ADBFF" stroke-linecap="round" stroke-linejoin="round"/>
</g>
<defs>
<clipPath id="clip0">
<rect width="24" height="24" fill="white"/>
</clipPath>
</defs>
</svg>
