<svg width="24" height="24" viewBox="0 0 24 24" fill="none" xmlns="http://www.w3.org/2000/svg">
<path d="M11.9999 2.68994L17.6599 8.34994C18.7792 9.46855 19.5417 10.894 19.8508 12.446C20.1599 13.998 20.0018 15.6068 19.3964 17.0689C18.7911 18.531 17.7657 19.7808 16.45 20.66C15.1343 21.5393 13.5874 22.0086 12.0049 22.0086C10.4224 22.0086 8.87549 21.5393 7.55978 20.66C6.24407 19.7808 5.2187 18.531 4.61335 17.0689C4.008 15.6068 3.84988 13.998 4.15899 12.446C4.46809 10.894 5.23054 9.46855 6.34989 8.34994L11.9999 2.68994Z" stroke="#0085FF" stroke-width="2" stroke-linecap="round" stroke-linejoin="round"/>
<path d="M19 15C19 15.7879 18.8189 16.5681 18.4672 17.2961C18.1154 18.0241 17.5998 18.6855 16.9497 19.2426C16.2997 19.7998 15.5281 20.2417 14.6788 20.5433C13.8295 20.8448 12.9193 21 12 21C11.0807 21 10.1705 20.8448 9.32122 20.5433C8.47194 20.2417 7.70026 19.7998 7.05025 19.2426C6.40024 18.6855 5.88463 18.0241 5.53284 17.2961C5.18106 16.5681 5 15.7879 5 15L12 15H19Z" fill="#0085FF"/>
</svg>
