<svg width="25" height="25" viewBox="0 0 25 25" fill="none" xmlns="http://www.w3.org/2000/svg">
<g clip-path="url(#clip0)">
<mask id="mask0" style="mask-type:alpha" maskUnits="userSpaceOnUse" x="-6" y="-3" width="35" height="32">
<path d="M8.36081 -2.04971L15.1651 5.37735L1.60088 18.4292L-5.20337 11.0021L8.36081 -2.04971Z" fill="#C4C4C4"/>
<path d="M21.9593 6.15448L28.7635 13.5815L13.7484 28.0295L6.94418 20.6024L21.9593 6.15448Z" fill="#C4C4C4"/>
</mask>
<g mask="url(#mask0)">
<path d="M22.5674 10.3207C22.5274 10.7296 22.3872 11.1222 22.1594 11.4641C21.9315 11.8059 21.6229 12.0862 21.2609 12.2804C20.8988 12.4746 20.4945 12.5765 20.0837 12.5773H2.58374M10.1737 5.16725C10.406 4.93357 10.6925 4.7609 11.0076 4.66459C11.3227 4.56829 11.6568 4.55134 11.98 4.61524C12.3033 4.67915 12.6057 4.82193 12.8605 5.0309C13.1153 5.23987 13.3145 5.50854 13.4404 5.81305C13.5663 6.11755 13.615 6.44844 13.5822 6.77632C13.5494 7.10419 13.4361 7.41888 13.2524 7.69241C13.0687 7.96595 12.8202 8.18985 12.5291 8.34422C12.238 8.49859 11.9132 8.57864 11.5837 8.57725H2.58374L10.1737 5.16725ZM13.1737 19.9873C13.406 20.2209 13.6925 20.3936 14.0076 20.4899C14.3227 20.5862 14.6568 20.6032 14.98 20.5393C15.3033 20.4754 15.6057 20.3326 15.8605 20.1236C16.1153 19.9146 16.3145 19.646 16.4404 19.3415C16.5663 19.037 16.615 18.7061 16.5822 18.3782C16.5494 18.0503 16.4361 17.7356 16.2524 17.4621C16.0687 17.1886 15.8202 16.9647 15.5291 16.8103C15.238 16.6559 14.9132 16.5759 14.5837 16.5773H2.58374L13.1737 19.9873Z" stroke="#4D4D4D" stroke-width="2" stroke-linecap="round" stroke-linejoin="round"/>
</g>
<path d="M15.5882 4H20M20 4V8.41176M20 4L5 19" stroke="#4D4D4D" stroke-width="2" stroke-linecap="round" stroke-linejoin="round"/>
</g>
<defs>
<clipPath id="clip0">
<rect width="24" height="24" fill="white" transform="translate(0.58374 0.577271)"/>
</clipPath>
</defs>
</svg>
