<svg width="25" height="25" viewBox="0 0 25 25" fill="none" xmlns="http://www.w3.org/2000/svg">
<path d="M18.3648 8.64588C18.6556 8.35576 19.0135 8.14179 19.4067 8.02289C19.7999 7.90399 20.2164 7.88382 20.6193 7.96416C21.0221 8.04451 21.399 8.2229 21.7165 8.48355C22.034 8.74419 22.2824 9.07907 22.4397 9.45857C22.597 9.83806 22.6584 10.2505 22.6184 10.6593C22.5784 11.0682 22.4383 11.4609 22.2104 11.8027C21.9825 12.1445 21.6739 12.4249 21.3119 12.619C20.9499 12.8132 20.5456 12.9151 20.1348 12.9159H2.63477M10.2248 5.50588C10.4571 5.27219 10.7435 5.09952 11.0586 5.00322C11.3738 4.90691 11.7078 4.88996 12.031 4.95387C12.3543 5.01777 12.6568 5.16055 12.9115 5.36952C13.1663 5.57849 13.3655 5.84717 13.4914 6.15167C13.6173 6.45617 13.666 6.78707 13.6332 7.11494C13.6004 7.44281 13.4871 7.7575 13.3034 8.03104C13.1197 8.30457 12.8712 8.52847 12.5801 8.68284C12.289 8.83721 11.9643 8.91726 11.6348 8.91588H2.63477L10.2248 5.50588ZM13.2248 20.3259C13.4571 20.5596 13.7435 20.7322 14.0586 20.8285C14.3738 20.9248 14.7078 20.9418 15.031 20.8779C15.3543 20.814 15.6568 20.6712 15.9115 20.4622C16.1663 20.2533 16.3655 19.9846 16.4914 19.6801C16.6173 19.3756 16.666 19.0447 16.6332 18.7168C16.6004 18.3889 16.4871 18.0743 16.3034 17.8007C16.1197 17.5272 15.8712 17.3033 15.5801 17.1489C15.289 16.9945 14.9643 16.9145 14.6348 16.9159H2.63477L13.2248 20.3259Z" stroke="#4D4D4D" stroke-width="2" stroke-linecap="round" stroke-linejoin="round"/>
</svg>
